# xmcd
#
# Track frame offsets: 
#        150
#        14578
#        32223
#        43673
#        59863
#        72283
#        81771
#        92908
#        110869
#        123718
#        140722
#        157973
#        181359
#        196710
#        208470
#
# Disc length: 2975 seconds
#
# Revision: 0
# Processed by: cddbd v1.5.2PL0 Copyright (c) Steve Scherf et al.
# Submitted via: ExactAudioCopy v1.3
#
DISCID=eb0b9d0f
DTITLE=Nedra and Julio - Dusty Roads
DYEAR=2019
DGENRE=Blues
TTITLE0=Dusty Roads
TTITLE1=I Hear Ya Callin'
TTITLE2=Open Spaces
TTITLE3=Triple T Blues
TTITLE4=Low G Jammin'
TTITLE5=Shattered
TTITLE6=Pine Grove
TTITLE7=7 Riders
TTITLE8=Pine Stomp
TTITLE9=Bluesky Night
TTITLE10=Ramble Gambler
TTITLE11=Devil Card
TTITLE12=Roll on Down
TTITLE13=North Fork River
TTITLE14=Gator Crawl
EXTD=
EXTT0=
EXTT1=
EXTT2=
EXTT3=
EXTT4=
EXTT5=
EXTT6=
EXTT7=
EXTT8=
EXTT9=
EXTT10=
EXTT11=
EXTT12=
EXTT13=
EXTT14=
PLAYORDER=
